<svg width="336" height="150" viewBox="0 0 336 150" fill="none" xmlns="http://www.w3.org/2000/svg">
<path d="M96.1578 60.9595C106.042 60.9595 112.052 62.6987 115.082 66.4106C116.729 68.4331 117.561 71.1141 117.579 74.5164C117.59 76.4051 117.348 78.5142 116.863 80.8646L110.09 113.587C109.153 118.112 108.584 121.575 108.6 124.444C108.605 125.355 108.692 126.199 108.82 126.992C106.1 126.992 92.4039 126.992 90.2844 126.992C90.2791 126.792 90.2529 126.598 90.2529 126.391C90.2424 125.035 90.35 123.602 90.4706 122.115L90.6595 119.434H89.6338L89.2325 120.072C85.9036 125.423 78.3513 128.728 71.8797 128.728C66.5152 128.728 62.6748 127.356 60.4582 124.639C58.0159 121.643 57.4336 116.947 58.7216 110.693C61.2504 98.4797 66.8038 93.3066 80.7332 90.1824C80.741 90.1824 89.9853 88.0785 89.9853 88.0785C95.4705 86.864 98.12 84.4454 99.0984 79.713C99.6283 77.1187 99.3424 75.1119 98.2301 73.7452C97.2018 72.486 95.5492 71.8486 93.3221 71.8486C88.372 71.8486 85.733 74.4115 84.104 80.7755C82.391 80.7755 70.2743 80.7755 67.5645 80.7755C72.0135 63.5985 87.2808 60.9622 96.1578 60.9622V60.9595ZM251.409 55.1255C252.938 19.7905 210.331 -6.73568 170.571 1.51439C130.829 9.75922 111.619 44.3597 106.596 55.052H113.096C121.797 40.417 130.606 29.0557 145.624 24.8271C155.162 22.1356 162.654 22.7547 181.101 33.0457C189.6 37.7859 208.828 52.0432 229.486 54.8894C238.455 56.1275 251.409 55.1255 251.409 55.1255ZM333.854 41.2171H335.664L333.739 50.5295H332.711L334.295 42.8566C334.379 42.4605 334.484 42.0775 334.539 41.6787H334.515C334.29 42.2244 334.132 42.5706 333.97 42.93L330.447 50.5295H329.219L328.862 42.8199C328.844 42.4972 328.831 42.1877 328.831 41.6787H328.802C328.718 42.0749 328.658 42.4815 328.576 42.8828L326.997 50.5269H325.969L327.894 41.2144H329.718L330.035 48.4808C330.053 48.8769 330.027 49.2599 329.948 49.8606H329.975C330.137 49.3858 330.292 48.9267 330.502 48.4677L333.854 41.2144V41.2171ZM320.93 41.2171H326.78L326.58 42.1509H324.169L322.438 50.5295H321.41L323.141 42.1509H320.736L320.93 41.2171ZM3.83303 123.647C-1.03307 117.674 -1.2508 106.685 3.09327 85.715C10.0265 52.1901 20.0577 40.876 42.8274 40.876C51.9274 40.876 58.315 43.0455 61.8065 47.324C64.0651 50.0888 65.2036 53.8715 65.2325 58.6012C65.2456 61.1825 64.9334 64.0523 64.2802 67.1871C64.2802 67.1871 63.6848 70.049 63.3516 71.6702C61.4996 71.6702 44.16 71.6702 44.16 71.6702C44.16 71.6702 45.5818 62.5204 45.5687 60.5031C45.5556 58.2314 45.4664 57.0037 44.5981 55.86C43.6983 54.6743 42.3631 53.722 40.2645 53.722C31.7836 53.722 28.9951 61.8016 24.1657 85.1458C20.4119 103.264 19.074 111.583 21.9675 115.14C23.0666 116.478 24.7192 117.128 27.0408 117.128C33.7195 117.128 36.3533 111.404 39.7084 95.4734C41.5499 95.4734 56.3004 95.4734 59.0416 95.4734C58.6586 97.3202 58.0264 100.366 58.0264 100.366C53.9604 120.014 42.4471 129.979 23.7958 129.979C13.6964 129.979 7.35341 127.957 3.8304 123.644L3.83303 123.647ZM165.167 60.9595C158.777 60.9595 151.18 65.4321 147.468 72.6172L147.085 73.3596H145.658C145.658 73.3596 147.371 65.0728 147.857 62.7092C147.492 62.7092 146.91 62.7092 146.186 62.7092V62.6987C144.066 62.6987 130.37 62.6987 127.647 62.6987C127.781 63.5014 127.865 64.3409 127.867 65.2564C127.881 67.3209 127.587 69.7028 127.07 72.5647C123.46 90.0197 116.291 124.639 115.806 126.992C118.547 126.992 133.45 126.992 135.304 126.992C136.55 120.953 142.631 91.5176 142.631 91.5176C144.467 82.6642 149.661 78.5405 158.958 78.5405C160.563 78.5405 161.972 78.627 163.362 78.8316C163.795 76.7462 166.516 63.5933 167.056 60.9569C166.109 60.9569 165.167 60.9569 165.167 60.9569V60.9595ZM316.79 41.2617C316.129 44.4148 299.479 124.906 299.036 126.994C297.195 126.994 282.287 126.994 279.551 126.994C280.212 123.833 296.867 43.3445 297.297 41.2617C299.149 41.2617 314.054 41.2617 316.793 41.2617H316.79ZM285.537 41.2617C284.886 44.4148 268.234 124.906 267.796 126.994C265.949 126.994 251.057 126.994 248.305 126.994C248.956 123.833 265.614 43.3445 266.046 41.2617C267.901 41.2617 282.79 41.2617 285.537 41.2617ZM249.74 62.7092C249.098 65.8073 236.873 124.938 236.446 126.992C234.599 126.992 219.696 126.992 216.95 126.992C217.595 123.886 229.835 64.7632 230.263 62.7092C232.104 62.7092 247.002 62.7092 249.74 62.7092ZM162.392 121.218C158.481 116.417 157.712 108.865 160.411 95.4157C166.3 66.1299 177.431 60.9595 187.118 60.9595C191.725 60.9595 198.655 62.6673 199.471 70.7468L199.6 72.0033H200.943C200.943 72.0033 202.517 64.4038 202.863 62.7092C204.686 62.7092 218.172 62.7092 220.866 62.7092C220.211 65.8624 207.493 126.992 207.493 126.992C204.316 142.351 194.461 150 176.368 150C159.611 150 157.122 140.116 156.744 137.06C156.6 135.895 156.988 132.466 156.988 132.466C158.919 132.466 172.061 132.466 174.511 132.466C174.511 132.479 174.511 132.479 174.511 132.479C174.522 134.045 174.64 136.343 175.167 136.994C175.891 137.886 176.492 138.938 179.275 138.938C182.963 138.938 186.494 137.875 188.218 129.544L191.2 115.119H189.765L189.364 115.801C185.778 122.01 179.091 125.15 172.048 125.15C167.714 125.15 164.546 123.873 162.389 121.218H162.392ZM180.267 93.9939C178.299 103.527 178.383 107.189 180.314 109.555C181.269 110.733 182.701 111.299 184.682 111.299C190.156 111.299 192.824 107.976 195.607 94.5606C197.593 84.9543 197.8 78.85 195.898 76.5101C194.965 75.3742 193.6 74.8102 191.717 74.8102C186.061 74.8102 183.042 80.5761 180.269 93.9913L180.267 93.9939ZM95.9558 94.6497C95.9558 94.6497 95.5807 94.9908 94.8672 95.2741C93.6946 95.7253 91.0949 96.1476 89.4895 96.549C88.2487 96.8638 86.8401 97.2179 85.3265 97.8606C81.2867 99.5683 79.2038 102.37 78.1283 107.522C77.504 110.531 77.8712 112.997 79.1986 114.626C80.1902 115.848 81.6592 116.491 83.4272 116.491C90.6516 116.491 92.9181 109.581 93.9936 104.371L96.0056 94.6497H95.9558Z" fill="#717171"/>
</svg>
