<svg width="280" height="280" viewBox="0 0 280 280" fill="none" xmlns="http://www.w3.org/2000/svg">
<path d="M280 140C280 217.32 217.32 280 140 280C62.6801 280 0 217.32 0 140C0 62.6801 62.6801 0 140 0C217.32 0 280 62.6801 280 140Z" fill="#404040"/>
<path fill-rule="evenodd" clip-rule="evenodd" d="M140.267 220H138.717C137.864 219.869 137.003 219.516 136.183 218.942C133.362 216.982 134.773 212.874 123.391 206.109C114.453 200.804 102.825 200.623 92.001 200.623C88.2781 200.623 84.2601 201.779 81.7345 200.271C79.6762 199.041 78.4462 195.088 77.3228 192.809L73.5754 184.682C72.9194 183.354 72.3536 181.935 71.6976 180.623C71.0908 179.385 70.1313 178.024 70.1313 176.253C70.1313 173.653 70.689 171.784 73.5508 170.611C74.6168 170.176 75.732 170.373 77.1506 170.152C89.2457 168.257 95.1006 156.81 96.962 145.904C99.5532 130.701 92.739 110.16 78.1346 107.946C75.937 107.61 73.9936 107.765 72.4356 106.765C71.058 105.879 70.0657 104.272 70.0083 102.157C69.9509 100.139 71.1236 98.7536 72.0666 97.2612L82.8825 79.6392C84.5799 77.007 86.0149 72.8249 90.1313 72.8249C92.0092 72.8249 93.6164 74.2927 94.6824 75.1456C96.224 76.3756 96.9948 76.9086 99.0612 77.6384C105.802 80.041 114.084 75.6786 115.576 68.2739C115.871 66.8225 115.716 60.0082 120.75 60.0082H158.873C160.57 60.0082 162.341 61.517 163.005 62.7552C163.834 64.3132 163.711 66.7897 164.104 68.5281C165.81 75.9738 174.108 80.041 180.791 77.5564C185.777 75.7032 187.999 70.5945 192.55 73.8253C194.682 75.3342 200.693 85.9697 202.489 88.8889C203.473 90.4879 204.195 91.8491 205.179 93.3825C207.097 96.351 209.976 100.148 209.541 102.854C208.426 109.791 202.546 105.912 195.56 110.127C183.76 117.253 180.636 133.579 182.751 146.429C183.12 148.676 183.629 150.718 184.293 152.702C186.605 159.656 192.075 167.314 199.381 169.488C203.087 170.595 209.5 169.52 209.5 175.31C209.5 179.032 204.744 187.003 202.94 190.619C201.029 194.44 199.93 198.508 196.15 199.467L182.317 199.369C169.902 199.369 156.544 203.1 147.86 212.095C146.687 213.309 145.507 215.113 144.604 216.654C143.456 218.622 141.915 219.729 140.267 219.992V220Z" fill="#B3B3B3"/>
</svg>
