<svg width="371" height="150" viewBox="0 0 371 150" fill="none" xmlns="http://www.w3.org/2000/svg">
<path fill-rule="evenodd" clip-rule="evenodd" d="M154.388 92.9396C155.495 91.1492 157.684 88.7481 159.138 86.9377C160.747 84.9333 162.111 83.0717 163.826 81.1978C165.105 79.8005 173.507 71.8556 176.88 74.8448C180.764 78.2874 171.66 85.9252 169.719 87.0923C164.35 90.3195 160.208 91.1272 154.388 92.9401V92.9396ZM301.29 48.8894C303.987 48.8894 306.174 51.0766 306.174 53.774C306.174 56.4714 303.987 58.6586 301.29 58.6586C298.592 58.6586 296.405 56.4714 296.405 53.774C296.405 51.0766 298.592 48.8894 301.29 48.8894V48.8894ZM169.125 19.2135L170.813 18.1893C170.1 16.5944 168.58 16.6169 166.517 16.6143L169.125 19.2135ZM120.703 134.709L122.915 132.952C122.96 132.908 123.028 132.848 123.073 132.805C123.138 132.744 123.328 132.578 123.392 132.517L136.267 118.148L133.43 118.089L122.757 132.201C122.718 132.251 122.658 132.319 122.62 132.368C122.58 132.417 122.522 132.486 122.482 132.535C121.723 133.489 121.623 133.957 120.702 134.709L120.703 134.709ZM174.721 24.9262C176.592 26.8656 191.177 40.2259 191.984 42.0552C191.163 43.6297 181.786 55.0879 179.963 57.7552C178.998 59.1668 176.56 61.7614 176.113 63.0272L184.529 63.1086C187.252 63.1408 187.069 63.1326 188.373 61.5515C190.023 59.5507 192.004 57.8289 193.714 55.8547C195.503 53.7894 197.312 52.1177 199.045 50.143L204.214 44.2035L190.71 33.4091C189.627 32.6761 188.548 31.6862 187.473 30.814C186.35 29.9029 185.205 28.9796 184.052 28.0977L177.153 22.863L174.72 24.9268L174.721 24.9262ZM1.1713 44.203C1.94778 45.7124 8.49073 52.217 10.1174 54.1236C10.9399 55.0874 11.4431 55.4964 12.3634 56.4771C13.1992 57.3682 13.815 58.2087 14.6257 59.1295C16.1188 60.8237 17.8079 62.3029 19.2641 63.9946C20.8181 65.7989 22.2687 67.2474 23.7699 69.0102L41.8274 88.6989C43.4454 90.2657 45.0526 91.9911 46.431 93.6004L72.4738 122.214C73.4391 123.178 72.7947 123.145 74.1987 122.592C74.7976 120.993 72.1943 118.7 71.1553 117.366L13.3994 42.0542C13.9998 40.8662 20.7239 34.7742 22.2676 33.2351L44.9092 10.768C46.2882 9.43977 48.484 7.5577 49.4314 6.25147L31.4287 20.3007C29.3746 21.9156 27.4163 23.4066 25.3838 24.9938L1.17182 44.2024L1.1713 44.203ZM69.1355 73.756C88.9824 73.756 106.061 65.0531 117.917 53.3932C123.122 48.2752 133.849 34.2731 135.475 28.9898L132.675 27.982L127.351 36.1408C123.888 41.0351 121.334 44.6293 116.947 48.7461C111.935 53.45 103.099 59.9126 95.1507 63.4648C86.4657 67.3462 76.2487 70.447 65.1697 69.3501C44.3134 67.2858 41.056 47.0386 54.8565 29.6122C61.8908 20.7296 70.2483 14.5659 81.0897 10.4307C93.8424 5.56713 108.444 5.63316 121.852 7.39647C139.756 9.75097 156.717 13.1957 174.89 15.1904C192.517 17.1252 209.999 16.8759 224.676 6.52531C224.356 5.72119 223.875 4.96519 223.184 4.40677C219.869 5.79336 220.224 6.52428 214.335 8.05266C200.052 11.7584 174.073 6.65941 160.427 4.46819C132.816 0.0340485 106.932 -3.6185 80.1464 6.43061C66.0598 11.7154 51.2766 24.1052 45.4037 37.3462C40.6399 48.0858 41.1292 62.0112 51.6139 69.0952C56.3153 72.2712 62.005 73.7571 69.135 73.7571L69.1355 73.756ZM127.84 75.1662C128.578 73.906 129.532 72.5184 130.49 71.1871C135.153 64.7096 142.372 54.0264 147.296 48.1012C151.49 43.0544 158.351 35.6602 163.266 31.2363C165.555 29.1766 167.858 27.2024 170.355 25.1274L177.793 19.2847L176.363 17.4144C174.911 17.8556 173.312 19.1593 172.151 19.8835C164.492 24.6611 148.754 38.7615 142.137 45.0951C139.967 47.1722 138.095 49.088 136.064 51.2834L124.467 64.2474C110.447 80.6036 118.622 76.3583 102.989 79.9079C89.8782 82.8849 69.5721 90.0528 59.8127 98.2592L61.4634 101.522C62.4513 101.249 65.5183 99.1258 66.822 98.357C72.8695 94.7925 76.3715 92.3771 83.6234 89.3761C89.1821 87.0759 104.348 82.3285 110.513 81.9692L98.8028 97.8068C97.4837 99.4959 96.112 101.433 94.6952 102.902C93.1463 104.509 92.1692 106.281 90.5344 107.952L77.3988 122.432C63.4003 136.439 49.0312 145.891 27.4005 145.884C3.86414 145.876 1.22095 130.816 6.41826 127.558C9.43151 125.669 11.808 128.991 14.8044 128.908C17.5704 128.83 20.1916 126.985 21.2946 124.653C24.3519 118.188 17.8171 114.007 11.1257 116.625C-0.0663452 121.005 -4.30087 135.375 5.42579 142.887C15.3352 150.539 28.5306 150.83 40.645 149.195C65.5521 145.834 83.8834 131.734 96.1785 119.428C105.426 110.172 107.693 105.508 114.8 95.3944C117.724 91.2316 120.33 87.0165 123.167 82.5854C125.793 78.4845 124.18 79.4673 129.612 78.2659C132.217 77.6901 135.692 76.6833 138.282 76.4136C137.794 77.773 135.971 79.9965 135.102 81.3314C132.526 85.288 128.172 93.3829 128.401 98.1932L136.019 95.464C136.859 88.464 139.058 83.5103 142.426 77.9066C144.125 75.0797 143.471 75.699 146.445 74.2618C150.112 72.4892 153.188 70.3517 155.937 68.0924C157.51 66.8 163.538 62.1576 162.14 59.2395C159.518 56.0666 147.756 66.8348 146.399 68.0633C141.396 72.5921 144.175 71.7317 138.482 73.0221C135.051 73.7996 131.338 74.6492 127.839 75.1657L127.84 75.1662ZM205.835 87.6967C206.488 86.8604 207.445 85.1283 208.104 84.0416C209.544 81.6708 214.731 74.4337 215.416 72.4897L206.037 73.0717C204.892 75.2962 203.343 77.3784 202.053 79.5404C200.79 81.6564 199.207 84.0734 197.904 86.1361C194.495 91.53 186.799 97.5851 181.694 101.828C175.458 107.01 160.665 118.526 152.823 114.571C150.993 113.648 149.196 110.278 149.258 107.417C149.328 104.196 150.234 101.402 151.336 98.7875C152.331 96.4294 154.204 96.6305 158.461 95.1708C166.862 92.2901 181.879 87.6425 184.845 78.5797C185.666 76.0722 184.502 73.1874 181.997 72.179C175.841 69.6991 166.973 72.9509 162.194 77.1143C160.888 78.2521 160.38 78.4748 159.053 79.5031C157.011 81.0857 154.749 82.5348 153.153 84.0329C148.77 88.1456 142.094 97.5744 140.726 103.863C138.449 114.334 146.306 121.007 155.341 119.075C165.194 116.967 169.702 115.421 177.675 109.169C178.673 108.387 179.658 107.566 180.557 106.829C183.121 104.724 186.983 100.943 189.347 99.3807C187.006 104.253 183.351 108.684 180.634 113.354C179.768 114.842 178.383 116.681 177.756 118.143C189.367 117.314 185.792 119.111 190.334 112.295C193.705 107.237 197.237 101.418 201.194 96.7851L209.704 87.7991C211.245 86.2508 217.699 80.7894 219.929 80.0651C219.876 83.3501 219.882 86.0153 221.576 88.1589C222.535 89.3725 225.476 91.4875 227.563 91.9973C229.985 92.589 234.292 92.0019 236.621 91.403C239.332 90.7059 241.909 89.2978 243.889 88.7639C240.63 94.685 224.143 115.051 236.482 118.983C242.456 120.886 248.819 117.317 253.213 113.82C256.457 111.24 259.495 108.547 262.366 105.479C263.306 104.474 264.135 103.308 265.149 102.548C263.555 105.864 261.05 111.857 263.212 115.877C265.511 120.15 271.092 119.995 275.134 118.548C280.461 116.639 285.713 111.494 290.173 108.124C291.864 106.847 293.054 105.284 294.701 104.115C292.547 108.991 288.206 113.333 285.754 118.15L295.897 117.476C300.797 109.101 313.256 91.0703 320.147 84.7019C321.972 83.0164 324.119 81.1548 326.368 79.5747C336.741 72.2896 346.38 72.8204 342.285 78.29C341.503 79.3342 341.137 79.9412 340.379 81.0059C339.043 82.8828 337.612 84.6338 336.37 86.5036C332.017 93.0594 316.632 110.107 324.577 117.118C328.605 120.672 334.035 119.618 338.922 117.891C341.305 117.049 343.108 115.868 344.971 114.397C353.618 107.569 361.147 98.8238 367.741 89.9514C368.363 89.1146 371.539 85.5936 370.397 84.3815C368.872 83.2928 366.747 87.5473 365.985 88.4973C364.395 90.4797 363.437 91.8627 361.723 93.754C355.613 100.493 350.792 107.409 342.471 112.244C338.847 114.351 333.424 119.255 329.23 115.881C328.645 110.098 335.667 103.05 338.446 98.3974C339.972 95.8438 342.251 92.9693 344.152 90.6005C345.641 88.744 348.205 84.489 349.001 81.6237C349.773 78.8392 349.497 78.7461 348.829 76.2815C348.349 74.5105 347.147 73.5692 345.875 72.4862C343.41 70.3871 337.983 71.4261 334.736 72.2891C332.081 72.9944 328.201 75.6074 325.986 77.038L317.978 82.8588C319.867 79.4135 323.353 75.8137 324.94 72.5174L315.182 73.063C313.64 76.3132 308.514 83.214 306.264 86.7744C303.934 90.4628 293.624 101.367 289.869 104.749C287.805 106.607 285.56 108.317 283.542 110.074C281.78 111.608 279.437 113.445 277.04 114.937C273.6 117.08 272.333 117.371 268.54 115.836C269.053 109.095 276.901 99.2911 280.418 93.4494L293.795 72.4104L284.135 73.0702C281.751 77.3958 278.321 81.8893 275.621 86.2027C272.326 91.4645 264.628 99.7528 260.165 103.897C256.265 107.519 252.648 110.962 248.085 113.902C245.182 115.773 244.376 116.99 239.942 116.985C238.916 115.098 238.558 116.478 238.77 114.15C239.043 111.147 241.827 107.413 243.364 104.883C248.003 97.2494 252.983 89.9786 257.608 82.307L275.575 53.9291C277.357 51.2358 292.896 26.8221 293.487 25.1991L285.277 25.8379C283.029 26.1726 282.506 28.3961 280.988 30.8202L273.816 42.0558C266.566 54.074 257.373 67.4578 249.916 79.5302C247.831 82.9069 247.02 84.7331 244.369 85.9519C241.435 87.3001 232.827 90.6348 229.543 88.4732C227.709 87.2663 228.097 85.85 228.3 84.6635C229.246 79.1432 229.999 77.7029 232.226 73.1413C232.612 72.35 233.156 71.6831 232.05 71.2398C231.347 70.9578 227.047 71.4026 226.27 71.5669C224.728 71.8929 223.697 73.148 222.563 73.9659L219.171 76.7063C216.733 78.6575 214.678 80.2683 212.34 82.1468C209.97 84.0524 208.101 85.8341 205.836 87.6967H205.835Z" fill="#717171"/>
</svg>
