<?xml version="1.0" encoding="UTF-8"?>
<!DOCTYPE svg PUBLIC "-//W3C//DTD SVG 1.1//EN" "http://www.w3.org/Graphics/SVG/1.1/DTD/svg11.dtd">
<!-- Creator: CorelDRAW 2020 (64 Bit) -->
<svg xmlns="http://www.w3.org/2000/svg" xml:space="preserve" width="472.017mm" height="472.017mm" version="1.1" style="shape-rendering:geometricPrecision; text-rendering:geometricPrecision; image-rendering:optimizeQuality; fill-rule:evenodd; clip-rule:evenodd"
viewBox="0 0 14419.96 14419.97"
 xmlns:xlink="http://www.w3.org/1999/xlink"
 xmlns:xodm="http://www.corel.com/coreldraw/odm/2003">
 <defs>
  <style type="text/css">
   <![CDATA[
    .fil0 {fill:#ffffff}
   ]]>
  </style>
 </defs>
 <g id="Camada_x0020_1">
  <metadata id="CorelCorpID_0Corel-Layer"/>
  <path class="fil0" d="M14419.96 7210c0,3981.97 -3228.03,7209.97 -7209.97,7209.97 -3981.97,0 -7209.99,-3228 -7209.99,-7209.97 0,-3981.97 3228.02,-7210 7209.99,-7210 3981.93,0 7209.97,3228.03 7209.97,7210zm-7209.97 -1587.48c-875.39,0 -1587.55,712.05 -1587.55,1587.37 0,875.32 712.16,1587.59 1587.55,1587.59 875.29,0 1587.48,-712.27 1587.48,-1587.59 0,-875.32 -712.19,-1587.37 -1587.48,-1587.37zm0 3973.89c-1315.92,0 -2386.41,-1070.53 -2386.41,-2386.52 0,-1315.7 1070.5,-2386.31 2386.41,-2386.31 1315.77,0 2386.27,1070.61 2386.27,2386.31 0,1315.99 -1070.5,2386.52 -2386.27,2386.52zm-2007.4 -6247.57c-1022.2,0 -1853.83,831.48 -1853.83,1853.68l0 4014.95c0,1022.02 831.63,1853.69 1853.83,1853.69l4014.77 0c1022.09,0 1853.79,-831.67 1853.79,-1853.69l0 -4014.95c0,-1022.2 -831.7,-1853.68 -1853.79,-1853.68l-4014.77 0zm4014.77 8521.11l-4014.77 0c-1462.61,0 -2652.62,-1189.89 -2652.62,-2652.47l0 -4014.95c0,-1462.61 1190,-2652.54 2652.62,-2652.54l4014.77 0c1462.54,0 2652.58,1189.93 2652.58,2652.54l0 4014.95c0,1462.58 -1190.04,2652.47 -2652.58,2652.47zm1054.86 -7182.74c0,316.71 -256.83,573.46 -573.57,573.46 -316.74,0 -573.57,-256.75 -573.57,-573.46 0,-316.82 256.83,-573.75 573.57,-573.75 316.74,0 573.57,256.93 573.57,573.75z"/>
 </g>
</svg>
