<?xml version="1.0" encoding="UTF-8"?>
<!DOCTYPE svg PUBLIC "-//W3C//DTD SVG 1.1//EN" "http://www.w3.org/Graphics/SVG/1.1/DTD/svg11.dtd">
<!-- Creator: CorelDRAW 2020 (64 Bit) -->
<svg xmlns="http://www.w3.org/2000/svg" xml:space="preserve" width="472.017mm" height="472.017mm" version="1.1" style="shape-rendering:geometricPrecision; text-rendering:geometricPrecision; image-rendering:optimizeQuality; fill-rule:evenodd; clip-rule:evenodd"
viewBox="0 0 48671.59 48671.59"
 xmlns:xlink="http://www.w3.org/1999/xlink"
 xmlns:xodm="http://www.corel.com/coreldraw/odm/2003">
 <defs>
  <style type="text/css">
   <![CDATA[
    .fil0 {fill:#ffffff}
   ]]>
  </style>
 </defs>
 <g id="Camada_x0020_1">
  <metadata id="CorelCorpID_0Corel-Layer"/>
  <path class="fil0" d="M48671.59 24335.86c0,13440.3 -10895.56,24335.73 -24335.86,24335.73 -13440.31,0 -24335.73,-10895.43 -24335.73,-24335.73 0,-13440.31 10895.42,-24335.86 24335.73,-24335.86 13440.3,0 24335.86,10895.55 24335.86,24335.86zm-24332.02 10149.5c-139.25,-126.34 -265.88,-329.88 -392.04,-484.72l-6294.34 -8089.35 -1266.16 -2137.59c-250.01,-610.22 -518.21,-1536.43 -635.75,-2372.66 -118.52,-843.17 -83.51,-1709.91 44.82,-2561.09 20.41,-135.29 48.64,-248.19 73.22,-367.93l181.11 -735.5 520.61 -1342.29c4.1,-8.76 15.94,-33.72 19.94,-42.62l423.49 -773.3 998.88 -1303.16c4.45,-4.21 11.58,-10.26 16.04,-14.46l1137.54 -1042.2c5.19,-4.02 12.58,-9.67 17.76,-13.72 15.96,-12.51 59.09,-47.71 69.82,-56.76l391.68 -270.3c368.37,-255.55 826.36,-488.44 1216.88,-675.3 55.9,-26.74 117.37,-49.62 178.45,-77.38l266.87 -108.76c8.15,-3.12 16.02,-6.44 24.18,-9.59 1828.82,-704.55 4080.04,-765.53 5936.99,-33.12l133.7 51.45c7.33,2.69 15.7,5.62 23.13,8.36l776.59 350.71c319.03,161.16 649.01,349.2 941.26,557.64l329.42 238.63c51.64,39.05 74.73,55.78 125.45,94.94 4.91,3.79 12.27,9.55 17.1,13.34l684.34 595.05c2255.92,2144.94 3289.68,5726.45 2317.67,8972.39 -227.49,759.66 -900.03,2209.02 -1418.38,2841.02 -398.59,485.99 -816.81,1094.29 -1241.82,1595.5l-624.15 795.43c-701.19,968.01 -1846.73,2297.42 -2493.61,3214.06l-2500.68 3183.3zm391.84 -25238.96l-783.68 0c-97.56,31.13 -561.41,42.66 -715.25,58.32 -4521.3,460.55 -8287.52,3824.67 -9376.41,8260.07 -446.93,1820.54 -443.91,3649.47 2.37,5449.42 190.85,769.75 463.08,1590.58 830.38,2265.23 873.61,1604.6 1330.81,2095.65 2506.37,3602.28 787.78,1009.65 1545.34,2049.57 2366.95,3037.02 119.41,143.5 205.87,275.62 329.07,431.65 431.73,546.79 923.72,1178.21 1337.57,1713.51 462.81,598.58 894.44,1142.36 1336.79,1717.85 351.33,457.06 636.53,925.51 1158.3,1154.66l211.22 71.33c296.07,79.79 635.1,82.06 920.91,-28.73l123.38 -61.41c93.58,-49.64 164.45,-87.48 239.65,-138.23l1545.85 -1827.84c5.63,-7.28 22.13,-27.68 27.76,-35 4.03,-5.26 9.76,-12.57 13.78,-17.87 41,-54.21 38.05,-54.22 81.33,-109.23 4.01,-5.09 9.93,-12.2 13.97,-17.25l156.5 -190.29c15.04,-18.72 28.95,-36.87 42.06,-54.27l207.07 -265.21c4.11,-5.17 9.91,-12.45 13.98,-17.6l536.94 -692.19c4.16,-5.2 9.94,-12.49 14.09,-17.66 4.08,-5.15 9.88,-12.33 13.96,-17.49 4.05,-5.11 9.85,-12.28 13.89,-17.43l467.08 -608.84c335.96,-478.19 1009.31,-1241.59 1284.92,-1648.85l329.84 -422.48c4.01,-5.07 9.94,-12.14 14.01,-17.18l660.73 -852.62c4.2,-4.85 10.62,-11.61 14.84,-16.52 4.31,-4.98 10.6,-11.89 14.91,-16.96 4.37,-5.15 10.44,-12.25 14.78,-17.49l939.98 -1209.62c4.11,-5.47 9.58,-12.92 13.57,-18.42l354.41 -459.23c56.87,-69.16 79.78,-116.93 162.22,-220.09 284.87,-356.44 585.81,-704.65 843.42,-1082.22l592.91 -917.88c4.87,-8.09 30.79,-51.18 35.74,-59.67l45.55 -80.15c3.35,-5.96 7.79,-13.95 11.12,-19.95 3.35,-6.05 7.84,-14.05 11.18,-20.16l627.45 -1294.99c236.89,-563.46 432.62,-1223.81 565.39,-1833.23l153.94 -888.61c194.57,-1453.39 67.35,-3122.21 -284.53,-4431.98 -12.45,-46.31 -29.15,-113.64 -40.76,-153.95l-122.45 -405.4c-2.35,-7.01 -5.15,-15.51 -7.51,-22.6l-269.73 -734.72c-2.98,-7.09 -6.27,-15.39 -9.3,-22.51l-531.55 -1113.56c-12.04,-23.14 -24.39,-47.1 -31.02,-59.08 -4.46,-8.01 -17.81,-30.76 -22.47,-38.75l-263.33 -442.39c-4.71,-7.49 -17.76,-27.81 -22.42,-35.18 -3.11,-4.91 -8.08,-12.8 -11.21,-17.73l-306.77 -462.4c-1829.84,-2554.85 -4568.4,-4231.01 -7721.12,-4552.56 -156.11,-15.91 -578.62,-22.48 -682.59,-55.65zm-642.44 8850.91c183.54,-30.11 334.42,-27.46 520.9,1.58l639.3 187.05c6.66,3.31 14.92,7.13 21.57,10.42l63.43 31.82c1795.18,955.62 1481.26,3836.23 -724.97,4148.79 -893.03,126.52 -1676.4,-352.56 -2084.26,-993.79l-115.31 -197.45c-3.17,-6.76 -6.57,-15.17 -9.66,-22.07l-69.38 -159.13c-243.71,-592.68 -192.17,-1247.72 91.28,-1816.85l163.63 -281.38 677.38 -621.77c246.74,-144.92 454.18,-226.22 826.11,-287.23zm-98.07 -2209.47c-691.73,83.56 -1161.84,212.77 -1682.01,506.45 -269.89,152.38 -397.32,236.37 -642.12,428.02 -2411.62,1888.03 -2078.9,5755.82 396.74,7220.78 35.85,21.22 49.37,27.22 85.38,48.68l908.93 415.17c7.41,2.16 15.94,4.43 23.44,6.51l592.16 134.96c1784.17,307.63 2518.4,-345.84 3782.4,-1277.58 228.29,-265.79 449.45,-557.78 634.8,-878.97l132.81 -245.15c27.57,-63.73 42.5,-115.47 83.54,-202.24l59.66 -126.23c149.36,-346.88 287.55,-986.35 294.08,-1442.66 2.6,-181.79 6.45,-384.91 -6.66,-565.07l-108.68 -674.76c-19.56,-86.3 -34.96,-138.66 -57.94,-215.48l-46.04 -142.95c-2.75,-7.95 -5.7,-15.95 -8.52,-23.93 -133.88,-379.68 -285.3,-702.09 -509.73,-1043.16l-172.39 -237.05c-804.58,-1111.15 -2363.64,-1854.01 -3759.86,-1685.33zm-252.33 24268.73l1202.01 0c252.99,-94.26 2359.37,63.18 4897.27,-1060.24l778.8 -426.64c0.48,-0.36 36.78,-29.16 51.84,-40.67l716.35 -601.63c51.5,-53.71 55.4,-65.55 100.21,-125.1 86.63,-115.13 258.13,-386.94 321.09,-561.05 87.43,-241.82 131.01,-502.98 98.16,-770.8l-86.86 -354.21c-39.82,-106.85 -91.96,-206.35 -143.82,-302.96 -249.11,-464.01 -1039.67,-1140.15 -1354.01,-1226.07 32.17,20.79 169.18,125.52 204.3,153.19 92.37,72.72 342.83,287.56 500.31,567.92 601.75,1071.4 -854.36,1928.65 -1736.79,2253.34 -1507.79,554.78 -3115.01,791.85 -4916.3,791.82 -1759.16,-0.02 -3441.38,-218.14 -4927.25,-776.26 -714.03,-268.21 -1416.22,-670.47 -1737.32,-1186.74 -84.81,-136.35 -158.29,-300.67 -176.3,-468.81 -26.96,-251.78 54.1,-456.73 113.54,-575.28 145.05,-289.41 353.52,-457.01 599.66,-661.58l94.34 -84.71c-158.21,68.03 -407.23,238.99 -551.29,354.89 -455.32,366.35 -971.4,897.95 -1015.08,1599.81 -37.34,599.79 243.62,991.51 478.39,1301.01 255.52,336.85 726.07,654.66 1082.16,868.31l56.23 34.89c336.47,196.01 795.51,383.87 1149.37,527.29l2258.82 575.25 1942.18 195.01z"/>
 </g>
</svg>
