<?xml version="1.0" encoding="UTF-8"?>
<!DOCTYPE svg PUBLIC "-//W3C//DTD SVG 1.1//EN" "http://www.w3.org/Graphics/SVG/1.1/DTD/svg11.dtd">
<!-- Creator: CorelDRAW 2020 (64 Bit) -->
<svg xmlns="http://www.w3.org/2000/svg" xml:space="preserve" width="95.2843mm" height="17.2238mm" version="1.1" style="shape-rendering:geometricPrecision; text-rendering:geometricPrecision; image-rendering:optimizeQuality; fill-rule:evenodd; clip-rule:evenodd"
viewBox="0 0 148.56 26.85"
 xmlns:xlink="http://www.w3.org/1999/xlink"
 xmlns:xodm="http://www.corel.com/coreldraw/odm/2003">
 <defs>
  <style type="text/css">
   <![CDATA[
    .fil0 {fill:#EC2100}
    .fil1 {fill:white}
   ]]>
  </style>
 </defs>
 <g id="Camada_x0020_1">
  <metadata id="CorelCorpID_0Corel-Layer"/>
  <path class="fil0" d="M143.83 2.99l-0.12 -0.44 -0.07 -0.27c-0.03,-0.06 -0.11,-0.35 -0.1,-0.42l-0.02 -0.04c-0.01,-0.02 -0.01,-0.03 -0.01,-0.05 -0.01,-0.03 -0.01,-0.04 -0.03,-0.08l-0.1 0.03 -0.24 0.06 -0.02 0.02 0.01 0.05 0.13 0.48 0.06 0.23 0.06 0.24 0.12 0.46 0.01 0.07 -0.06 0.01 -0.03 -0.07 -0.06 -0.11c-0.02,-0.01 -0.02,-0.02 -0.04,-0.05 -0.02,-0.04 -0.02,-0.04 -0.03,-0.08 -0.04,-0.03 -0.13,-0.19 -0.14,-0.24 -0.05,-0.04 -0.13,-0.19 -0.15,-0.25 -0.04,-0.02 -0.1,-0.16 -0.14,-0.22 -0.05,-0.08 -0.1,-0.15 -0.13,-0.24 -0.04,-0.05 -0.25,-0.42 -0.27,-0.48l-0.01 -0.03c-0.05,-0.05 -0.08,-0.12 -0.12,-0.19 -0.05,-0.07 -0.08,-0.15 -0.13,-0.22 -0.05,-0.08 -0.11,-0.15 -0.12,-0.24 -0.06,-0.05 -0.18,-0.27 -0.2,-0.34 -0.06,0.02 -0.08,0.02 -0.13,0.06 -0.06,0.03 -0.02,0.03 -0.09,0.03 -0.02,0.03 0.01,0 -0.03,0.03 -0,0 -0.04,0.02 -0.04,0.02 -0.02,0.01 -0.04,0.03 -0.06,0.05 0.02,0.05 0.05,0.09 0.08,0.16 0.02,0.01 0.04,0.06 0.06,0.09 0.03,0.04 0.04,0.07 0.05,0.12 0.03,0.02 0.02,0 0.04,0.06l0.11 0.19c0.03,0.04 0.25,0.42 0.27,0.48 0.04,0.03 0.24,0.4 0.25,0.44 0.03,0.03 0.01,0.01 0.04,0.05 0.02,0.03 0.02,0.03 0.03,0.06 0.03,0.01 0.03,0.03 0.04,0.05 0.03,0.05 0.02,0.03 0.03,0.08 0.05,0.04 0.13,0.18 0.14,0.24 0.04,0.03 0.05,0.06 0.08,0.11 0.03,0.04 0.05,0.09 0.07,0.13 0.03,0.01 0.24,0.39 0.27,0.46 0.02,0.02 0.01,0 0.03,0.04l-0.05 0.04c-0.04,-0.02 -0.07,-0.05 -0.09,-0.1 -0.03,-0.01 -0,0.01 -0.04,-0.02 -0.02,-0.01 -0.02,-0.02 -0.03,-0.03 -0.04,-0.03 -0.05,-0.05 -0.09,-0.08 -0.04,-0.04 -0.06,-0.04 -0.08,-0.1 -0.03,-0.01 -0,0.01 -0.04,-0.02 -0.03,-0.03 -0.01,-0.01 -0.02,-0.04 -0.05,-0.02 -0.06,-0.05 -0.1,-0.08 -0.04,-0.03 -0.06,-0.05 -0.08,-0.09l-0.06 -0.06 -0.17 -0.17 -0.06 -0.06 -0.17 -0.17 -0.06 -0.06 -0.04 -0.02c-0.01,0.02 -0.01,0.02 -0.03,0.04 -0.03,0.03 -0.01,0.02 -0.04,0.03 -0.03,0.05 -0,0.02 -0.05,0.05 -0.02,0.02 -0.03,0.03 -0.05,0.04 -0.03,0.03 -0.06,0.06 -0.09,0.1l0.03 0.04 0.04 0.04 0.19 0.19 0.04 0.04 0.19 0.19 0.04 0.04 0.19 0.19 0.04 0.04 0.19 0.19 0.04 0.04c0.03,0.02 0.04,0.03 0.06,0.05 0.04,0.05 0.02,0.01 0.03,0.06 -0.02,0.02 -0.01,0.01 -0.03,0.04l-0.05 -0.04c-0.05,-0.01 -0.45,-0.24 -0.46,-0.27 -0.05,-0.02 -0.18,-0.08 -0.22,-0.13l-0.03 -0.01c-0.07,-0.03 -0.2,-0.1 -0.24,-0.15 -0.06,-0.01 -0.07,-0.02 -0.12,-0.05 -0.03,-0.02 -0.03,-0.02 -0.07,-0.04 -0,-0 -0.02,-0.02 -0.03,-0.02 -0.02,-0.01 -0.02,-0.01 -0.03,-0.02 -0.04,-0 -0.41,-0.21 -0.44,-0.25 -0.08,-0.03 -0.42,-0.22 -0.48,-0.27l-0.16 -0.1c-0.05,-0.02 -0.06,-0.02 -0.09,-0.06 -0.05,-0.01 -0.05,-0.01 -0.1,-0.04 -0.03,-0.02 -0.05,-0.03 -0.09,-0.05 -0.06,-0.04 -0.11,-0.07 -0.17,-0.1l-0.09 0.15c-0,-0 -0.01,0.01 -0.01,0.01l-0.04 0.08c-0.02,0.05 -0.04,0.06 -0.06,0.11 0.07,0.03 0.29,0.14 0.34,0.2 0.08,0.01 0.16,0.08 0.24,0.12 0.07,0.04 0.15,0.08 0.22,0.13 0.06,0.03 0.18,0.09 0.21,0.14l0.01 -0c0.08,0.03 0.21,0.1 0.27,0.15l0.1 0.06 0.11 0.06c0.01,0.01 0.44,0.24 0.46,0.27 0.08,0.03 0.19,0.1 0.26,0.14l0.18 0.1c0.05,0.03 0.03,0.01 0.05,0.05 0.04,0.01 0.01,-0.01 0.06,0.02 0.01,0 0.03,0.02 0.04,0.02 0.03,0.02 0.04,0.02 0.06,0.05l0.08 0.04c0.04,0.01 0.08,0.02 0.07,0.06 -0.01,0.06 -0.05,0.04 -0.1,0.02l-0.46 -0.12 -0.24 -0.06 -0.23 -0.06 -0.48 -0.13c-0.05,-0.01 -0.02,-0.03 -0.06,0.02l-0.06 0.24 -0.03 0.1 0.14 0.04 0.48 0.13 0.22 0.06 0.48 0.13c0.05,0.02 0.08,0.02 0.13,0.04 0.07,0.02 0.08,0.01 0.05,0.08 -0.09,0.04 -2.84,0.01 -3.2,0.01l0 0.39 0.18 -0 0.25 -0 0.22 0 0.26 0 0.2 0 0.25 -0 0.22 0 0.26 0 0.2 0 0.25 -0 0.22 0 0.26 0 0.2 0 0.21 0.01c0.01,0.08 0.01,0.06 -0.07,0.08 -0.06,0.01 -0.09,0.02 -0.15,0.03 -0.04,0.02 -0.14,0.05 -0.19,0.04 -0.04,0.03 -0.07,0.03 -0.12,0.05 -0.04,0.01 -0.08,0.02 -0.12,0.03 -0.08,0.02 -0.18,0.06 -0.26,0.07 -0.06,0.02 -0.14,0.05 -0.2,0.04 -0,0 -0.01,0.01 -0.01,0.01l-0.39 0.11 0.05 0.18 0.07 0.19c0.02,0 0.01,0 0.04,-0l0.24 -0.06 0.23 -0.07 0.23 -0.06 0.48 -0.13 0.23 -0.06 0.07 -0.02 0.02 0.07c-0.04,0.01 -0.05,0.03 -0.1,0.04 -0.07,0.05 -0.39,0.24 -0.48,0.28 -0.02,0.03 -0.16,0.1 -0.2,0.13 -0.04,0.02 -0.07,0.04 -0.11,0.06 -0.05,0.03 -0.07,0.05 -0.12,0.05 -0.02,0.03 -0.02,0.03 -0.06,0.04 -0.04,0.04 -0.13,0.1 -0.19,0.1 -0.02,0.04 -0.18,0.12 -0.24,0.16 -0.08,0.04 -0.17,0.1 -0.24,0.14 -0.07,0.04 -0.17,0.09 -0.24,0.13 -0.08,0.05 -0.15,0.1 -0.24,0.13l-0.11 0.06c-0.02,0.03 -0.07,0.05 -0.1,0.06 -0.05,0.04 -0.2,0.12 -0.27,0.15l-0.01 -0c-0.03,0.04 -0.05,0.04 -0.07,0.07 0.03,0.06 0.08,0.11 0.09,0.17 0.01,0.01 0.01,0.01 0.03,0.03l0.06 0.1c0,0 0.01,0.01 0.01,0.01 0,0 0.01,0.01 0.01,0.01 0,0 0.01,0.01 0.01,0.01 0,-0 0.01,0 0.01,0.01l0.14 -0.07c0.03,-0.05 0.16,-0.09 0.22,-0.13 0.07,-0.04 0.15,-0.11 0.22,-0.12 0.03,-0.05 0.08,-0.07 0.14,-0.09 0.01,-0.02 0.01,-0.02 0.04,-0.03 0.05,-0.02 0.02,-0.01 0.06,-0.02 0.04,-0.05 0.18,-0.13 0.24,-0.15l0.03 -0.01c0.04,-0.04 0.17,-0.11 0.22,-0.13 0.02,-0.03 0.41,-0.25 0.46,-0.27 0.03,-0.04 0.38,-0.23 0.46,-0.27 0.05,-0.03 0.02,-0.03 0.08,-0.04 0.02,-0.02 -0.01,-0 0.04,-0.03 0,-0 0.03,-0.02 0.04,-0.02 0.03,-0.02 0.05,-0.03 0.08,-0.05 0.03,-0.02 0.07,-0.04 0.11,-0.06 0.02,-0.01 0.04,-0.03 0.06,-0.04 0.06,-0.03 0.01,-0.01 0.05,-0.02 0.01,-0.01 0.01,-0.02 0.04,-0.04 0.03,-0.02 -0,-0.01 0.04,-0.01l0.02 0.03c-0.01,0.06 -0.06,0.09 -0.11,0.13 -0,0.04 0,0.03 -0.03,0.06 -0.03,0.03 -0.02,0.03 -0.06,0.03l-0.14 0.14c-0,0.04 0,0.03 -0.03,0.06 -0.03,0.03 -0.02,0.03 -0.06,0.03l-0.14 0.14c-0,0.04 0,0.03 -0.03,0.06 -0.03,0.03 -0.02,0.03 -0.06,0.03l-0.14 0.14c-0,0.04 0,0.03 -0.03,0.06 -0.03,0.03 -0.02,0.03 -0.06,0.03l-0.14 0.14c-0,0.05 -0.03,0.04 -0.06,0.09 0.04,0.03 0.07,0.05 0.09,0.09l0.15 0.15c0.03,0.01 0.02,0.01 0.06,0.02 0.04,-0.06 0.72,-0.73 0.84,-0.85l0.24 -0.24c0.06,-0.03 0.09,0.07 -0.02,0.16 -0.01,0.05 -0.06,0.15 -0.1,0.2 -0,0 -0.01,0.01 -0.01,0.01 -0,-0 -0.01,0.01 -0.01,0.01 -0,0.04 0,0.02 -0.02,0.03 -0,0.04 0.01,0.01 -0.02,0.06 -0.01,0.01 -0.02,0.03 -0.03,0.05 -0.02,0.04 -0.04,0.07 -0.06,0.1l-0.1 0.16c-0.02,0.05 -0,0.03 -0.04,0.06 -0.04,0.09 -0.09,0.16 -0.13,0.25 -0.03,0.05 -0.11,0.2 -0.14,0.23 -0.02,0.09 -0.09,0.17 -0.13,0.25 -0.03,0.05 -0.09,0.2 -0.13,0.21 -0.02,0.05 -0.08,0.18 -0.13,0.22l-0.01 0.03c-0.04,0.06 -0.1,0.21 -0.15,0.24 -0.01,0.04 -0,0.03 -0.02,0.07 -0.03,0.05 -0,0.02 -0.03,0.03 -0.01,0.06 -0.04,0.11 -0.08,0.14 -0.03,0.07 -0.08,0.15 -0.13,0.22l-0.03 0.08 0.33 0.19c0.02,-0.01 0.01,0 0.02,-0.02 0,-0 0.02,-0.02 0.02,-0.03l0.06 -0.1 0.06 -0.11c0.03,-0.09 0.09,-0.16 0.14,-0.24 0.03,-0.05 0.09,-0.2 0.13,-0.21 0.02,-0.06 0.1,-0.2 0.14,-0.26 0.03,-0.06 0.1,-0.19 0.15,-0.23 0.01,-0.05 -0.01,-0.01 0.02,-0.06 0.01,-0.02 0.01,-0.02 0.02,-0.04 0.02,-0.03 0.03,-0.05 0.05,-0.06l0.04 -0.08c0.02,-0.05 0.23,-0.41 0.26,-0.43 0.03,-0.08 0.23,-0.43 0.27,-0.48 0.02,-0.05 0.04,-0.08 0.07,-0.13 0.02,-0.04 0.04,-0.09 0.08,-0.11 0.01,-0.06 0.05,-0.1 0.07,-0.16l0.08 0.02 -0.04 0.14 -0.14 0.49 -0.05 0.19 -0.07 0.26c-0,-0 -0,0.01 -0.01,0.01 0.01,0.1 -0.08,0.32 -0.1,0.43l0.02 0.01 0.24 0.06 0.12 0.02 0.03 -0.1 0.12 -0.43 0.06 -0.25 0.06 -0.22 0.13 -0.51 0.08 -0c0.01,0.03 0,-0.03 0.01,0.04l-0 1.55c0,0.54 0,1.07 0,1.61l0.37 0 0 -3.17 0.04 -0.03c0.07,0.02 0.03,-0.03 0.06,0.05 0,0 0.01,0.07 0.02,0.08 0.01,0.06 0.03,0.11 0.04,0.16l0.12 0.45 0.07 0.26c0.02,0.05 0.05,0.13 0.04,0.19l0.01 0.02c0.04,0.08 -0.02,-0.05 0.01,0.02l0.08 0.29 0.17 -0.04 0.22 -0.05 -0.12 -0.47 -0.06 -0.23 -0.13 -0.47 -0.06 -0.23 -0.03 -0.11c0.01,-0.09 0.11,-0.05 0.13,0.1 0.03,0.02 0.02,0.01 0.04,0.05 0.01,0.01 0.02,0.03 0.03,0.05l0.08 0.14c0.03,0.03 0.12,0.19 0.14,0.25l-0.01 -0c0.01,0.01 0.01,0.01 0.03,0.03l0.12 0.21c0.05,0.03 0.09,0.15 0.13,0.21 0.05,0.07 0.09,0.14 0.12,0.22 0.05,0.07 0.11,0.17 0.15,0.25 0.05,0.09 0.09,0.16 0.14,0.24l0.03 0.06c0.04,0.05 0.08,0.12 0.11,0.19 0.03,0.02 0.11,0.17 0.12,0.22 0.05,0.03 0.13,0.2 0.14,0.24 0.03,0.02 0.14,0.21 0.15,0.26 0.11,-0.04 0.24,-0.15 0.35,-0.19l-0.04 -0.08 -0.12 -0.21 -0.03 -0.05c-0.02,-0.03 -0.03,-0.06 -0.06,-0.09 -0.03,-0.05 -0.04,-0.05 -0.04,-0.1 -0.05,-0.03 -0.12,-0.18 -0.15,-0.24 -0.04,-0.06 -0.12,-0.19 -0.14,-0.25 -0.03,-0.02 -0.11,-0.17 -0.14,-0.22 -0.05,-0.08 -0.1,-0.15 -0.13,-0.23l-0.04 -0.07c-0.03,-0.03 -0.07,-0.09 -0.08,-0.14 -0.1,-0.14 -0.18,-0.33 -0.28,-0.48 -0.04,-0.08 -0.09,-0.15 -0.13,-0.23 -0.04,-0.07 -0.11,-0.16 -0.12,-0.24 -0.04,-0.03 -0.08,-0.09 -0.08,-0.15 0.08,-0.04 0.07,-0 0.12,0.05 0.05,0.05 0.05,0.04 0.1,0.11 0.04,-0 0.02,-0.02 0.02,0.02l0.22 0.22c0.04,-0 0.02,-0.02 0.02,0.02l0.22 0.22c0.04,-0 0.02,-0.02 0.02,0.02l0.22 0.22c0.04,-0 0.02,-0.02 0.02,0.02l0.21 0.21 0.07 -0.02 0.09 -0.1c0.04,-0.04 0.06,-0.07 0.1,-0.09 0.01,-0.03 0,-0.02 0.04,-0.04 -0.01,-0.03 -0.01,-0.03 -0.02,-0.05 -0.05,-0.03 -0.06,-0.04 -0.1,-0.08 -0.04,-0.04 -0.06,-0.05 -0.08,-0.1 -0.02,-0.01 -0,0.01 -0.03,-0.02 -0.04,-0.03 -0.01,-0.01 -0.02,-0.04 -0.05,-0.03 -0.06,-0.04 -0.09,-0.08 -0.04,-0.04 -0.06,-0.05 -0.08,-0.1 -0.02,-0.01 0,0.02 -0.04,-0.02 -0.03,-0.03 -0.01,-0.01 -0.02,-0.04 -0.06,-0.03 -0.14,-0.12 -0.18,-0.18 -0.03,-0.01 -0,0.01 -0.04,-0.02 -0.03,-0.03 -0.01,-0.01 -0.02,-0.04 -0.06,-0.03 -0.14,-0.12 -0.18,-0.18 -0.03,-0.01 -0,0.01 -0.04,-0.02 -0.03,-0.03 -0.01,-0.01 -0.02,-0.04 -0.06,-0.03 -0.12,-0.1 -0.16,-0.15l0.04 -0.05 0.13 0.08c0.05,0.01 0.39,0.21 0.46,0.25 0.08,0.04 0.16,0.09 0.24,0.13 0.05,0.03 0.07,0.04 0.12,0.07 0.04,0.02 0.08,0.04 0.1,0.06l0.2 0.12c0.06,0.02 0.03,-0.01 0.06,0.04 0.06,0 0.07,0.02 0.12,0.05 0.02,0.01 0.04,0.02 0.06,0.03 0.05,0.03 0.02,0.01 0.03,0.03l0.16 0.09c0.04,0.01 0.05,0.02 0.09,0.05l0.43 0.24c0.04,0.03 0.02,0 0.06,0.05 0.04,0 0.41,0.21 0.44,0.25l0.11 0.05c0.03,-0.1 0.16,-0.26 0.18,-0.34 -0.07,-0.05 -0.26,-0.14 -0.29,-0.18 -0.04,-0 0,0.01 -0.06,-0.02 -0.02,-0.01 -0.02,-0.01 -0.04,-0.02 -0.03,-0.02 -0.05,-0.02 -0.06,-0.05l-0.05 -0.02c-0.08,-0.03 -0.18,-0.09 -0.25,-0.14 -0.04,-0.03 -0.2,-0.1 -0.21,-0.13 -0.08,-0.03 -0.19,-0.1 -0.27,-0.14 -0.07,-0.03 -0.19,-0.1 -0.23,-0.15 -0.08,-0.01 -0.16,-0.08 -0.24,-0.12 -0.08,-0.04 -0.15,-0.08 -0.22,-0.13 -0.04,-0.02 -0.06,-0.03 -0.1,-0.06 -0.01,-0 -0.05,-0.03 -0.05,-0.03 -0.05,-0.03 -0.02,-0.01 -0.04,-0.03l-0.03 -0.01c-0.07,-0.03 -0.45,-0.24 -0.48,-0.28 -0.18,-0.07 -0.18,-0.16 -0.06,-0.13 0.02,0 0.04,0.01 0.06,0.02 0.05,0.01 0.09,0.02 0.14,0.04 0.05,0.01 0.1,0.02 0.13,0.05 0.04,-0 0.38,0.08 0.42,0.11l0.24 0.06 0.24 0.06 0.23 0.06 0.06 -0.2 0.04 -0.17c-0.09,-0.05 -0.29,-0.04 -0.36,-0.12 -0.06,0 -0.14,-0.02 -0.19,-0.04 -0.09,-0.01 -0.46,-0.1 -0.51,-0.14 -0.07,0 -0.14,-0.03 -0.21,-0.05 -0.05,-0.01 -0.1,-0.03 -0.15,-0.04 -0.09,-0.02 -0.1,-0 -0.09,-0.08 0.06,-0.04 0.19,-0.02 0.26,-0.02l0.23 -0 0.22 0 0.25 0 0.22 0 0.25 0 0.22 0 0.25 0 0.22 0 -5.73 0 0.22 0 0.25 0 0.22 0 0.25 0 0.22 0 0.25 0 0.22 0 0.25 0 0.22 0 0.25 0 0.22 0 0.25 0 0.22 0 0.25 0 0.22 0 0.25 0 0.22 0 0.25 0 0.22 0 0.25 0 0.22 0 0.25 0 0.05 -0 0 -0.38 -1.58 -0 -0.01 -0.07 0.48 -0.13c0.08,-0.02 0.15,-0.05 0.23,-0.05 0.02,-0.03 -0.02,-0 0.05,-0.03 0.02,-0.01 0.04,-0.01 0.06,-0.02 0.04,-0.01 0.08,-0.02 0.13,-0.03 0.09,-0.03 0.38,-0.12 0.46,-0.11 0.03,-0.03 0.05,-0.03 0.11,-0.04l-0.02 -0.11 -0.07 -0.24c-0.04,-0.05 -0.01,-0.02 -0.06,-0.02l-0.43 0.12 -0.22 0.06 -0.25 0.06 -0.45 0.12c-0.13,0.03 -0.14,0.05 -0.15,-0.01 -0.01,-0.04 -0,-0.03 0.05,-0.06 0.07,-0.04 0.26,-0.16 0.32,-0.17 0.03,-0.04 0.18,-0.13 0.24,-0.16 0.08,-0.04 0.18,-0.11 0.26,-0.13 0.01,-0.03 0.07,-0.05 0.1,-0.07 0.04,-0.02 0.07,-0.04 0.12,-0.07 0.08,-0.05 0.15,-0.1 0.24,-0.13 0.03,-0.03 0.01,-0.02 0.06,-0.03 0.01,-0.03 0.11,-0.08 0.15,-0.09l0.07 -0.05c0.02,-0.01 0.04,-0.02 0.06,-0.03l0.36 -0.21c0.07,-0.05 0.16,-0.09 0.24,-0.14 0.05,-0.03 0.18,-0.11 0.24,-0.13l0.11 -0.06c0.01,-0.03 0.09,-0.07 0.13,-0.08 0.01,-0.01 0.02,-0.02 0.02,-0.02 0.02,-0.02 0,-0 0.02,-0.03l-0.05 -0.08c-0.02,-0.03 -0.04,-0.07 -0.07,-0.12 -0.03,-0.04 -0.04,-0.08 -0.07,-0.12 -0.05,0.03 -0.1,0.05 -0.16,0.09 -0.03,0.02 -0.05,0.03 -0.08,0.05 -0.05,0.03 -0.03,0.02 -0.08,0.03 -0.03,0.05 -0.19,0.13 -0.24,0.15 -0.08,0.04 -0.16,0.1 -0.25,0.14l-0.02 0c-0.03,0.06 -0.15,0.11 -0.21,0.13 -0.02,0.03 -0.38,0.23 -0.43,0.25 -0.06,0.04 -0.18,0.11 -0.25,0.15 -0.09,0.05 -0.15,0.09 -0.24,0.14 -0.05,0.04 -0.03,0.03 -0.08,0.03 -0.03,0.05 -0.11,0.08 -0.16,0.1 -0.01,0.03 -0.06,0.04 -0.09,0.06 -0.04,0.03 -0.07,0.04 -0.12,0.05 -0.03,0.04 -0,0.02 -0.06,0.04 -0.02,0.03 -0.15,0.1 -0.19,0.11l-0.11 0.07 -0.04 -0.05 1.11 -1.11c-0.01,-0.02 -0.01,-0.04 -0.02,-0.05 -0.06,-0.03 -0.13,-0.11 -0.16,-0.16 -0.02,-0.01 -0,0 -0.03,-0.02 -0.01,-0 -0.02,-0.02 -0.02,-0.02 -0.05,-0.04 -0.01,-0.02 -0.07,-0.04l-0.07 0.07c-0.03,0.05 -0.08,0.1 -0.13,0.13l-0.1 0.1c-0.03,0.05 -0.08,0.1 -0.13,0.13l-0.1 0.1c-0.03,0.05 -0.02,0.03 -0.06,0.07 -0.03,0.03 -0.03,0.04 -0.08,0.07 -0,0.02 -0.02,0.04 -0.04,0.06 -0.04,0.04 -0.01,0.04 -0.06,0.04l-0.14 0.13c-0.01,0.04 -0.01,0.03 -0.04,0.06 -0.04,0.04 -0.01,0.03 -0.06,0.04l-0.1 0.1 -0.05 -0.01c0.01,-0.05 0,-0.04 0.03,-0.07 0.01,-0.01 0.24,-0.44 0.27,-0.46 0.03,-0.08 0.24,-0.46 0.29,-0.49 0.01,-0.08 0.07,-0.16 0.12,-0.24 0.05,-0.08 0.08,-0.15 0.13,-0.22 0.02,-0.04 0.03,-0.06 0.06,-0.1 0,-0 0.03,-0.05 0.03,-0.05 0.03,-0.05 0.01,-0.02 0.03,-0.04l0.01 -0.03c0.02,-0.07 0.24,-0.44 0.27,-0.48 0.03,-0.07 0.1,-0.18 0.14,-0.25 0.03,-0.06 0.09,-0.19 0.13,-0.21 0.02,-0.07 0.07,-0.11 0.08,-0.17 -0.05,-0.04 -0.1,-0.04 -0.13,-0.09l-0.04 -0c-0.07,-0.04 -0.1,-0.06 -0.17,-0.09 -0.03,0.04 -0.03,0.07 -0.07,0.1 -0.01,0.07 -0.09,0.2 -0.14,0.25 -0.01,0.04 -0,0.04 -0.03,0.08 -0.01,0.02 -0.02,0.04 -0.04,0.05 -0.01,0.03 -0.01,0.03 -0.03,0.06 -0.02,0.04 -0.01,0.02 -0.04,0.05 -0,0.04 -0.21,0.41 -0.25,0.44 -0.03,0.09 -0.09,0.17 -0.13,0.25 -0.02,0.04 -0.04,0.07 -0.07,0.12 -0.02,0.04 -0.04,0.09 -0.07,0.11 -0.02,0.04 -0.09,0.17 -0.12,0.2 -0.02,0.05 -0.01,0.03 -0.04,0.06 -0.01,0.08 -0.07,0.16 -0.12,0.24 -0.04,0.07 -0.09,0.18 -0.14,0.22 -0.01,0.03 -0.23,0.44 -0.29,0.49l-0.02 0.07 -0.07 -0.02 -0 -0.04 0.07 -0.26 0.13 -0.48 0.06 -0.22 0.06 -0.24 0.06 -0.22 0.01 -0.07 -0.18 -0.05 -0.2 -0.05 -0.11 0.38 -0.06 0.24 -0.13 0.46 -0.06 0.24c-0.01,0.04 -0.02,0.09 -0.03,0.13 -0.02,0.08 -0,0.08 -0.09,0.05l0 -3.2 -0.39 0 0 3.2 -0.08 0.01 -0.05 -0.23zm-3.8 23.52l0.77 0c0.31,0 0.54,-0.23 0.54,-0.54l0 -7.1c0,-2.74 1.23,-4.91 4.05,-4.91 0.34,0 0.68,0.06 1.03,0.09 0.4,0.06 0.68,-0.17 0.68,-0.6l0 -0.43c0,-0.26 -0.17,-0.46 -0.4,-0.51 -0.37,-0.09 -0.77,-0.11 -1.28,-0.11 -3.02,0 -3.94,2.34 -4.05,2.82l-0.03 -2c0,-0.34 -0.2,-0.54 -0.54,-0.54l-0.77 0c-0.34,0 -0.57,0.23 -0.57,0.54l0 12.75c0,0.31 0.23,0.54 0.57,0.54zm-15.55 -6.1l10.87 0c0.29,0 0.51,-0.23 0.51,-0.51 0.06,-5.08 -2.91,-7.5 -6.62,-7.5 -4.25,0 -6.67,3.17 -6.67,7.19 0,4.05 2.42,7.22 6.96,7.22 2.77,0 4.45,-1.26 5.33,-2.28 0.26,-0.31 0.14,-0.63 -0.23,-0.8l-0.68 -0.26c-0.23,-0.09 -0.46,-0.03 -0.63,0.14 -0.57,0.63 -1.71,1.6 -3.79,1.6 -3.11,0 -4.79,-2.03 -5.05,-4.79zm9.41 -1.51l-9.41 0c0.2,-2.8 1.91,-4.93 4.76,-4.93 2.88,0 4.65,2.2 4.65,4.93zm-24.96 5.62c0.91,1.45 2.8,2.28 5.28,2.28 3.34,0 5.68,-1.43 5.68,-4.08 0,-2.65 -1.91,-3.65 -5.45,-4.34 -2.54,-0.51 -3.48,-1.14 -3.48,-2.31 0,-1.23 1.11,-2.11 3.25,-2.11 1.8,0 2.74,0.74 3.22,1.31 0.17,0.17 0.43,0.26 0.63,0.17l0.71 -0.23c0.37,-0.11 0.51,-0.4 0.29,-0.71 -0.68,-1.03 -2.08,-2.11 -4.85,-2.11 -3.42,0 -5.13,1.6 -5.13,3.68 0,2.11 1.51,3.31 4.96,3.96 2.57,0.54 3.96,1.08 3.96,2.68 0,1.51 -1.48,2.48 -3.79,2.48 -1.77,0.03 -2.94,-0.63 -3.62,-1.43 -0.17,-0.2 -0.4,-0.29 -0.63,-0.2l-0.74 0.23c-0.37,0.11 -0.48,0.4 -0.29,0.71zm-4.42 2l0.77 0c0.31,0 0.54,-0.23 0.54,-0.54l0 -7.3c0,-3.74 -1.08,-6.28 -6.08,-6.28 -2.31,0 -3.99,0.74 -4.99,1.28 -0.31,0.17 -0.37,0.48 -0.17,0.77l0.31 0.48c0.17,0.26 0.48,0.31 0.74,0.17 1,-0.54 2.45,-1.14 4.11,-1.14 3.45,0 4.14,1.6 4.19,4.14 -0.86,-0.06 -1.74,-0.09 -2.62,-0.09 -3.82,0 -7.67,0.71 -7.67,4.51 0,2.85 2.14,4.28 5.22,4.28 2.6,0 4.51,-1.43 5.08,-2.82l0 2c0,0.31 0.23,0.54 0.57,0.54l0 0zm-0.57 -6.96l0 1.26c0,2.48 -1.63,4.39 -4.88,4.39 -2.31,0 -3.59,-1 -3.59,-2.68 0,-3.19 4.62,-3.11 8.47,-2.97zm-15.18 6.96l0.77 0c0.31,0 0.54,-0.23 0.54,-0.54l0 -20.59c0,-0.31 -0.23,-0.54 -0.54,-0.54l-0.77 0c-0.34,0 -0.57,0.23 -0.57,0.54l0 20.59c0,0.31 0.23,0.54 0.57,0.54z"/>
  <path class="fil1" d="M12.92 26.51l2.42 0c0.77,0 1.31,-0.51 1.31,-1.31l0 -19.05c0,-0.8 -0.54,-1.31 -1.31,-1.31l-2.42 0c-0.77,0 -1.31,0.51 -1.31,1.31l0 7.99c-0.57,-1.03 -2.03,-2.45 -4.65,-2.45 -4.31,0 -6.96,3.11 -6.96,7.56 0,4.45 2.65,7.56 6.96,7.56 2.62,0 4.08,-1.43 4.65,-2.45l0 0.91c0,0.74 0.54,1.26 1.31,1.26l0 0zm56.63 0l2.42 0c0.77,0 1.31,-0.51 1.31,-1.31l0 -6.1c0,-2 0.8,-3.54 2.77,-3.54 1.94,0 2.57,1.48 2.57,3.48l0 6.16c0,0.8 0.51,1.31 1.31,1.31l2.42 0c0.77,0 1.31,-0.51 1.31,-1.31l0 -6.16c0,-4.42 -1.68,-7.36 -6.16,-7.36 -2.45,0 -3.65,1.26 -4.22,2.34l0 -0.83c0,-0.66 -0.54,-1.23 -1.31,-1.23l-2.42 0c-0.8,0 -1.31,0.51 -1.31,1.31l0 11.92c0,0.8 0.51,1.31 1.31,1.31zm-10.69 0.34c5.11,0 8.39,-3.02 8.39,-7.62 0,-4.59 -3.28,-7.62 -8.39,-7.62 -5.08,0 -8.36,3.02 -8.36,7.62 0,4.59 3.28,7.62 8.36,7.62zm0 -3.85c-2.11,0 -3.31,-1.6 -3.31,-3.77 0,-2.17 1.2,-3.77 3.31,-3.77 2.14,0 3.34,1.6 3.34,3.77 0,2.17 -1.2,3.77 -3.34,3.77zm-23.27 3.51l2.42 0c0.77,0 1.31,-0.51 1.31,-1.31l0 -6.1c0,-2 0.8,-3.54 2.77,-3.54 1.94,0 2.57,1.48 2.57,3.48l0 6.16c0,0.8 0.51,1.31 1.31,1.31l2.42 0c0.77,0 1.31,-0.51 1.31,-1.31l0 -6.16c0,-4.42 -1.68,-7.36 -6.16,-7.36 -2.45,0 -3.65,1.26 -4.22,2.34l0 -7.87c0,-0.8 -0.54,-1.31 -1.31,-1.31l-2.42 0c-0.8,0 -1.31,0.51 -1.31,1.31l0 19.05c0,0.8 0.51,1.31 1.31,1.31zm-12.86 -5.93l9.47 0c0.68,0 1.23,-0.48 1.23,-1.17 -0.03,-5.05 -3.22,-7.79 -7.82,-7.79 -4.88,0 -7.96,3.02 -7.96,7.62 0,4.59 2.94,7.62 8.07,7.62 2.99,0 5.02,-1 6.25,-2.03 0.71,-0.6 0.48,-1.43 -0.4,-1.83l-1.28 -0.57c-0.17,-0.09 -0.37,-0.11 -0.57,-0.11 -0.26,0 -0.51,0.06 -0.74,0.17 -0.57,0.4 -1.54,0.86 -3,0.86 -2.34,0 -3.14,-1.31 -3.25,-2.77zm5.73 -2.42l-5.73 0c0.14,-1.6 1,-2.94 2.88,-2.94 1.94,0 2.82,1.37 2.85,2.94zm-20.1 4.76c-2.11,0 -3.34,-1.54 -3.34,-3.68 0,-2.14 1.23,-3.68 3.34,-3.68 2.05,0 3.25,1.54 3.25,3.68 0,2.14 -1.2,3.68 -3.25,3.68z"/>
 </g>
</svg>
