<svg width="280" height="280" viewBox="0 0 280 280" fill="none" xmlns="http://www.w3.org/2000/svg">
<path d="M280 140C280 217.32 217.32 280 140 280C62.6801 280 0 217.32 0 140C0 62.6801 62.6801 0 140 0C217.32 0 280 62.6801 280 140Z" fill="#404040"/>
<path d="M146.76 78.0708C142.53 76.4344 138.163 75.58 133.659 75.58C126.885 75.58 121.314 77.73 116.946 81.994L79.2559 119.35L83.1772 123.275L68.8709 137.568L44.8 113.653L59.1048 99.4598L63.5406 103.758L101.023 66.6076C106.181 61.5254 111.719 59 117.633 59C127.572 59 137.27 65.3465 146.76 78.0708ZM203.956 67.4934C208.053 67.4934 211.985 68.186 215.645 69.4565L206.346 79.4419C185.22 102.116 209.061 115.234 230.07 99.6686L238.174 93.6661C238.926 96.5135 239.328 99.5038 239.328 102.585C239.328 121.967 223.492 137.678 203.954 137.678C197.58 137.678 191.6 136.006 186.436 133.078L169.256 151.172C185.426 166.529 201.6 181.882 217.771 197.236L195.833 219C180.534 203.174 165.241 187.34 149.952 171.504L119.829 203.226C117.541 207.106 113.297 209.715 108.44 209.715C101.159 209.715 95.2546 203.859 95.2546 196.634C95.2546 193.512 96.3611 190.643 98.2023 188.394L98.1833 188.375L98.2988 188.276C99.2503 187.14 100.392 186.168 101.674 185.405L135.554 156.592L93.7823 113.189L111.116 95.9952C127.195 111.317 140.247 123.608 156.347 138.908L175.129 122.933C171.007 117.194 168.582 110.172 168.582 102.587C168.582 83.2033 184.417 67.4934 203.956 67.4934ZM90.1238 75.2737L72.8951 92.3657L69.5928 89.0912L86.8215 71.9976L90.1238 75.2737Z" fill="#B3B3B3"/>
</svg>
