<svg width="622" height="120" viewBox="0 0 622 120" fill="none" xmlns="http://www.w3.org/2000/svg">
<path fill-rule="evenodd" clip-rule="evenodd" d="M23.9102 84.0842C10.5996 89.3989 18.4511 107.596 30.7814 103.398C43.4935 99.0711 36.7342 78.9632 23.9102 84.0842Z" fill="#717171"/>
<path fill-rule="evenodd" clip-rule="evenodd" d="M79.826 32.5067C82.1446 44.7215 103.13 42.0304 99.9907 27.8902C97.1648 15.1637 77.2138 18.7498 79.826 32.5067V32.5067Z" fill="#717171"/>
<path fill-rule="evenodd" clip-rule="evenodd" d="M85.854 99.9491C88.0686 109.577 103.22 106.118 100.755 95.8622C98.5317 86.614 83.4485 89.4925 85.854 99.9491Z" fill="#717171"/>
<path fill-rule="evenodd" clip-rule="evenodd" d="M41.1798 93.0651C37.9906 95.04 40.7621 100.266 44.4098 98.2033C47.6348 96.3791 45.4605 90.4156 41.1798 93.0651Z" fill="#717171"/>
<path fill-rule="evenodd" clip-rule="evenodd" d="M23.8388 75.5193C19.0235 77.5007 22.5364 82.5433 25.6394 81.2539C29.5434 79.6313 27.0705 74.1895 23.8388 75.5193Z" fill="#717171"/>
<path fill-rule="evenodd" clip-rule="evenodd" d="M33.6209 76.7741C28.7704 78.8968 32.3364 83.7043 35.3971 82.5064C39.4403 80.924 36.7311 75.4133 33.6209 76.7741V76.7741Z" fill="#717171"/>
<path fill-rule="evenodd" clip-rule="evenodd" d="M44.1229 87.1895C44.3884 83.7098 43.5818 82.8959 40.1007 83.1894C35.6601 87.3589 40.1702 91.5986 44.1229 87.1895Z" fill="#717171"/>
<path fill-rule="evenodd" clip-rule="evenodd" d="M15.1865 36.954C12.3562 36.4343 14.0096 38.6188 13.2841 35.0444C13.2654 34.9517 13.2827 32.3138 13.2346 31.7727L14.6864 31.2783C11.93 31.1313 13.6689 31.1369 13.2346 31.7727L12.7351 34.306C12.7243 35.5238 12.8349 35.9436 13.0573 37.0689C14.136 37.4995 11.9565 37.8735 14.6685 37.2346C14.7847 37.2073 15.0036 37.0258 15.1867 36.954H15.1865Z" fill="#717171"/>
<path fill-rule="evenodd" clip-rule="evenodd" d="M67.9653 103.595C72.2955 93.3606 74.7705 92.4772 73.3691 76.7962C91.9047 78.1547 89.6694 75.3509 101.093 71.2295C105.66 82.0427 104.188 94.1005 104.188 107.285C96.3485 107.285 77.7977 108.285 71.4287 105.686L67.9653 103.595V103.595ZM83.1962 3.95037H116.656V4.46277V4.97587V5.48827V6.00137V6.51377V7.02617C116.654 16.938 116.645 26.8493 116.656 36.7604C116.666 44.1872 115.119 57.4555 109.365 61.6714C112.129 65.7993 113.352 66.9159 115.065 72.3763C115.944 75.1815 116.417 80.2 116.656 86.0322V120H116.144H115.631H115.118H114.606H114.093H113.581H113.067H112.555H112.043C102.815 119.998 93.5867 119.994 84.3587 120H83.8463C70.3032 120.008 68.2874 118.971 58.936 112.709C57.116 113.927 56.1509 114.943 53.8797 116.159C51.7426 117.302 50.1351 118.076 47.8932 118.678C45.2258 119.395 40.5152 119.792 34.9938 120H0V119.487V118.974V118.462V117.949C0.00281731 107.782 0.0221863 97.6124 0 87.4451V86.617C0.032223 78.7216 1.1389 73.2756 4.66106 66.9396C5.32137 65.752 5.51717 65.465 6.30655 64.3317L7.89903 62.2786C4.96393 57.8968 3.73963 57.0514 1.8846 51.2801C0.808216 47.9288 0.260601 42.4132 0.000176082 36.179V3.9502H0.512574H1.02568H1.53808H2.05047H2.56358H3.07598H3.58908H4.10148H4.61387H5.12698H5.63938H6.15177H6.66488H7.17727H7.69038H8.20278H8.71517H9.22828H9.74068H10.2531H10.7662H11.2786H11.7917H29.7339H30.2463H30.7594H31.2718H31.7842H32.2973H32.8097H33.2374H33.6586H34.072C42.4137 3.95442 46.5071 4.08507 53.4745 7.58858C64.0035 12.8825 55.5334 9.97044 69.6413 5.54198C72.4478 4.66069 77.4253 4.18773 83.1966 3.9502L83.1962 3.95037ZM13.1757 107.278C13.1757 91.7258 10.7651 75.8768 20.024 66.5033C28.8788 57.5393 45.2796 57.449 54.138 66.4681C63.2433 75.7392 63.1349 91.1467 53.8064 100.29C43.9103 109.989 29.3733 107.278 13.1757 107.278V107.278ZM104.1 16.6652C104.1 32.2392 106.512 48.0644 97.2511 57.4553C93.8323 60.9229 87.4935 64.3833 80.2016 64.3905C58.138 64.412 48.6955 37.7981 63.4601 23.6613C73.626 13.9281 87.5882 16.6652 104.1 16.6652V16.6652ZM33.7919 43.2649C30.973 47.069 29.0211 45.1458 26.1262 43.3725C20.4403 46.698 22.9729 45.7478 17.6202 43.3674C16.3004 44.3261 15.7537 45.1141 13.4593 45.2684L13.089 40.4108C13.3093 40.3254 13.5513 40.0685 13.6337 40.2078L16.8752 39.0014C19.7865 38.3621 17.3129 38.8521 20.2702 39.5612C25.1091 40.7209 23.5504 38.0261 27.8627 39.2548C33.2154 40.7798 32.1929 38.3089 35.4279 39.0021C41.0685 40.2113 38.4197 40.0076 43.3864 38.5572L43.4811 43.2052C35.7379 47.038 40.2439 45.567 33.7917 43.2647L33.7919 43.2649ZM15.1865 36.9548C15.0036 37.0267 14.7847 37.2082 14.6683 37.2355C11.9565 37.8741 14.1359 37.5003 13.0572 37.0698C12.8348 35.9446 12.7242 35.5247 12.7349 34.3069L13.2345 31.7736C13.6687 31.1378 11.9299 31.132 14.6863 31.2792C19.1894 30.7215 15.0853 30.0521 20.1603 31.2311C24.1058 32.1467 24.1977 30.5479 26.1274 30.5451C27.7593 30.5423 28.436 32.0685 32.1353 31.2728C36.6398 30.3033 32.3089 30.2501 37.1609 31.2707C40.9873 32.0759 42.0114 30.241 43.1797 30.4576C47.3578 31.2327 41.1308 41.148 34.632 35.0554C30.4947 37.1825 30.5573 38.251 26.126 35.0302C22.1374 37.816 21.6056 37.2406 17.6357 35.0589L15.1864 36.955L15.1865 36.9548ZM13.3666 16.6573H35.8478C39.6484 16.6573 43.3579 17.0255 46.6841 18.6122L49.2524 20.3237L45.5207 28.4487L42.6294 26.5433C39.7818 30.0862 37.7173 29.3615 34.5955 26.5935C31.5549 29.0391 29.5233 30.1945 26.126 26.7435C22.6168 29.8429 21.0839 29.469 17.6508 26.6172C16.0721 27.761 15.8595 28.5434 13.1017 28.8642L13.3666 16.6573V16.6573Z" fill="#717171"/>
<path d="M178.511 3.52498H132.973V115.749H149.424V76.6787H174.104C192.316 76.6787 209.359 63.7527 209.359 38.4815C209.359 13.2216 194.077 3.52498 178.511 3.52498V3.52498ZM251.072 19.3903C231.096 19.3903 210.827 34.0773 210.827 69.6251C210.827 105.174 229.039 119.864 250.489 119.864C271.934 119.864 283.687 102.826 283.687 102.826V85.4934C283.687 85.4934 275.459 105.467 252.546 105.467C231.61 105.467 227.4 87.2982 226.585 74.3258H288.678C291.91 34.0775 274.284 19.3905 251.072 19.3905L251.072 19.3903ZM352.138 95.4771V108.699C352.138 108.699 345.673 118.1 331.273 118.1C316.88 118.1 303.664 111.638 303.664 90.7796C303.664 69.9216 303.664 40.542 303.664 40.542H289.264V29.38C289.264 29.38 310.122 25.8492 316.88 0.000176082H321.583V23.7975H353.902V40.542H319.818C319.818 40.542 319.818 81.6723 319.818 88.1338C319.818 94.5983 322.172 104.881 334.213 104.881C346.259 104.881 350.077 98.126 352.138 95.4772V95.4771ZM360.064 115.749H377.693V3.52498H360.064V115.749ZM417.063 19.3903C397.086 19.3903 384.747 34.663 384.747 34.663V53.4678C390.912 43.1878 405.019 36.7233 418.238 36.7233C431.454 36.7233 435.281 42.5956 435.281 51.1175C435.281 58.1702 426.704 61.2719 409.42 66.6893C385.89 74.0586 381.514 81.9626 381.514 93.1296C381.514 104.294 387.094 118.689 407.958 118.689C422.712 118.689 431.431 105.466 435.281 97.7167C435.281 107.924 435.281 115.749 435.281 115.749H450.847C450.847 115.749 450.847 76.0866 450.847 51.1173C450.847 26.1473 437.042 19.3901 417.063 19.3901L417.063 19.3903ZM474.354 64.6319C474.354 74.0358 474.354 115.749 474.354 115.749H456.432V22.9125H472.886V48.1781C472.886 48.1781 481.108 20.8615 502.26 20.8615C528.407 20.8615 533.987 35.2549 533.987 57.8746C533.987 83.7264 533.987 115.749 533.987 115.749H516.367V57.2854C516.367 57.2854 516.95 37.3123 500.203 37.3123C483.461 37.3123 474.354 54.3466 474.354 64.6317L474.354 64.6319ZM603.398 0V37.9131C600.679 27.3195 590.802 19.0912 576.588 19.0912C549.852 19.0912 539.865 41.7166 539.865 68.7461C539.865 92.5384 547.211 117.81 573.942 117.81C593.121 117.81 601.416 101.024 604.573 91.5344V115.749H621.021V0H603.397H603.398ZM172.925 61.3998H149.423V22.0307H176.453C188.207 22.0307 193.197 29.6756 193.197 41.421C193.197 53.1773 184.975 61.3998 172.925 61.3998ZM226.721 60.5206C227.864 49.3385 232.813 36.7233 252.546 36.7233C276.633 36.7233 278.102 60.5206 278.102 60.5206H226.721V60.5206ZM412.359 105.174C402.079 105.174 398.262 99.5912 398.262 93.1297C398.262 86.6624 400.905 81.6721 411.48 78.7363C418.496 76.7865 428.996 72.7678 435.281 70.284C435.281 75.0655 435.281 80.3057 435.281 85.4791C430.592 98.4138 421.066 105.174 412.359 105.174V105.174ZM579.827 103.256C563.387 103.256 555.55 88.3023 555.55 69.8491C555.55 51.4017 562.778 36.4449 579.827 36.4449C596.876 36.4449 604.109 51.4017 604.109 69.8491C604.109 88.3023 594.514 103.256 579.827 103.256Z" fill="#717171"/>
</svg>
