<svg width="280" height="280" viewBox="0 0 280 280" fill="none" xmlns="http://www.w3.org/2000/svg">
<path d="M280 140C280 217.32 217.32 280 140 280C62.6801 280 0 217.32 0 140C0 62.6801 62.6801 0 140 0C217.32 0 280 62.6801 280 140Z" fill="#404040"/>
<path fill-rule="evenodd" clip-rule="evenodd" d="M191.713 60C195.698 60 198.96 63.2619 198.96 67.2465V153.399C198.96 157.383 195.698 160.645 191.713 160.645H180.379V180.815C180.379 181.91 179.491 182.797 178.397 182.797H171.811V215.437C171.811 217.935 169.767 219.979 167.269 219.979C164.771 219.979 162.727 217.935 162.727 215.437V182.797H118.196V215.437C118.196 217.935 116.152 219.979 113.654 219.979C111.156 219.979 109.112 217.935 109.112 215.437V182.797H102.526C101.432 182.797 100.544 181.91 100.544 180.815V160.645H89.2099C85.2253 160.645 81.9634 157.383 81.9634 153.399V67.2465C81.9634 63.2619 85.2253 60 89.2099 60H191.713Z" fill="#B3B3B3"/>
</svg>
