<?xml version="1.0" encoding="UTF-8"?>
<!DOCTYPE svg PUBLIC "-//W3C//DTD SVG 1.1//EN" "http://www.w3.org/Graphics/SVG/1.1/DTD/svg11.dtd">
<!-- Creator: CorelDRAW 2020 (64 Bit) -->
<svg xmlns="http://www.w3.org/2000/svg" xml:space="preserve" width="472.02mm" height="472.017mm" version="1.1" style="shape-rendering:geometricPrecision; text-rendering:geometricPrecision; image-rendering:optimizeQuality; fill-rule:evenodd; clip-rule:evenodd"
viewBox="0 0 7950 7949.96"
 xmlns:xlink="http://www.w3.org/1999/xlink"
 xmlns:xodm="http://www.corel.com/coreldraw/odm/2003">
 <defs>
  <style type="text/css">
   <![CDATA[
    .fil0 {fill:#ffffff}
   ]]>
  </style>
 </defs>
 <g id="Camada_x0020_1">
  <metadata id="CorelCorpID_0Corel-Layer"/>
  <path class="fil0" d="M7950 3974.99c0,2195.32 -1779.79,3974.97 -3974.93,3974.97 -2195.34,0 -3975.07,-1779.65 -3975.07,-3974.97 0,-2195.32 1779.73,-3974.99 3975.07,-3974.99 2195.14,0 3974.93,1779.67 3974.93,3974.99zm-1516.92 -114.03c-30.74,-1197.25 -1014.94,-2155.16 -2227.48,-2155.16 -1197.17,0 -2174.19,935.06 -2223.68,2113.33 -3.79,30.44 -3.79,64.67 -3.79,95.03 0,418.11 117.96,809.6 319.35,1144.12l-402.78 1185.89 1235.09 -391.55c319.35,174.99 688,273.72 1075.82,273.72 1231.5,0 2231.07,-988.27 2231.07,-2212.19 0,-18.96 -3.59,-34.23 -3.59,-53.19l0 0zm-1205.15 501.72c-56.88,-26.63 -322.94,-159.6 -372.44,-178.62 -53.29,-15.21 -87.42,-26.61 -125.35,30.38 -34.33,53.17 -140.52,174.85 -171.05,209.02 -34.33,38.08 -64.67,41.9 -117.76,15.27 -57.28,-26.61 -231.93,-83.65 -440.9,-269.87 -163.67,-144.43 -273.64,-319.29 -304.18,-372.54 -30.54,-56.96 -3.99,-83.59 22.75,-113.95 26.75,-22.81 57.08,-60.84 83.63,-95.13 7.58,-7.54 15.17,-15.15 18.96,-22.75 15.17,-22.75 22.75,-41.77 34.33,-64.65 18.96,-37.9 11.38,-68.38 -3.79,-94.95 -11.58,-26.63 -121.55,-296.46 -167.46,-402.92 -45.31,-110.24 -91.02,-91.23 -121.55,-91.23 -34.13,0 -68.26,-3.81 -106.38,-3.81 -38.12,0 -95.01,11.44 -144.51,68.44 -53.29,53.17 -193.81,182.41 -193.81,452.28 0,60.78 11.38,125.43 30.54,182.47 53.09,193.87 174.85,349.67 193.81,376.3 26.55,38.02 376.24,600.58 931.11,817.26 558.86,216.64 558.86,144.39 657.66,136.78 98.8,-7.67 323.14,-129.24 368.65,-258.45 45.71,-125.43 45.71,-235.7 30.54,-258.54 -11.58,-18.94 -49.5,-34.17 -102.79,-60.78l0 0zm-1022.32 1413.93c-380.23,0 -733.71,-113.95 -1030.11,-307.84l-718.34 228.12 231.73 -691.86c-224.15,-304.04 -357.28,-684.07 -357.28,-1090.88 0,-60.8 3.79,-117.84 11.58,-178.62 91.22,-942.66 892.99,-1680.01 1862.42,-1680.01 984.4,0 1794.16,756.4 1870,1714.24 3.79,49.36 3.79,98.8 3.79,144.39 0,1026.3 -840.09,1862.46 -1873.79,1862.46l0 0z"/>
 </g>
</svg>
